<?xml version="1.0" standalone="no"?>
<!DOCTYPE svg PUBLIC "-//W3C//DTD SVG 20010904//EN"
 "http://www.w3.org/TR/2001/REC-SVG-20010904/DTD/svg10.dtd">
<svg version="1.0" xmlns="http://www.w3.org/2000/svg"
 width="2345.000000pt" height="2345.000000pt" viewBox="0 0 2345.000000 2345.000000"
 preserveAspectRatio="xMidYMid meet">
<metadata>
Created by potrace 1.11, written by Peter Selinger 2001-2013
</metadata>
<g transform="translate(0.000000,2345.000000) scale(0.100000,-0.100000)"
fill="#000000" stroke="none">
<path d="M5407 22103 c-1 -1 -51 -4 -112 -7 -60 -4 -130 -8 -155 -10 -142 -14
-167 -16 -190 -20 -14 -3 -45 -7 -70 -10 -62 -8 -102 -15 -195 -32 -44 -9 -93
-18 -110 -20 -16 -3 -57 -12 -90 -21 -33 -8 -68 -17 -77 -18 -80 -16 -376
-106 -503 -153 -434 -160 -845 -380 -1205 -646 -336 -247 -646 -546 -912 -877
-260 -324 -496 -720 -658 -1104 -5 -11 -22 -51 -38 -90 -54 -128 -154 -434
-187 -572 -3 -10 -15 -63 -29 -118 -13 -55 -27 -113 -30 -130 -41 -236 -52
-305 -61 -390 -3 -33 -8 -71 -10 -85 -26 -150 -26 -765 0 -955 2 -16 7 -57 10
-90 3 -33 8 -71 10 -85 2 -14 9 -56 15 -95 17 -113 60 -324 82 -405 11 -41 21
-82 23 -90 34 -142 147 -474 212 -620 8 -19 23 -53 33 -75 169 -383 411 -774
679 -1100 135 -164 258 -294 475 -500 18 -17 90 -80 206 -179 14 -12 63 -50
110 -86 47 -36 90 -69 96 -75 35 -30 379 -255 391 -255 4 0 14 -6 22 -14 68
-58 535 -279 776 -366 229 -84 536 -167 760 -205 131 -23 193 -32 267 -41 29
-3 64 -8 78 -10 147 -25 842 -25 978 1 9 1 44 6 77 9 154 17 390 61 590 110
l100 25 350 -349 c395 -394 384 -384 445 -415 165 -84 345 -57 496 75 31 27
82 62 113 78 48 23 68 27 146 27 79 0 97 -4 148 -28 66 -33 137 -99 165 -154
40 -77 44 -118 43 -403 0 -222 2 -286 15 -330 23 -78 49 -126 102 -182 55 -59
111 -94 193 -119 56 -18 99 -19 563 -19 l502 0 186 -187 186 -188 1 -540 c1
-297 4 -560 7 -585 16 -120 127 -266 239 -315 97 -42 118 -44 687 -42 l548 2
192 -192 193 -193 2 -513 c2 -493 2 -516 23 -576 49 -148 155 -248 300 -286
61 -16 182 -14 260 3 25 6 63 13 85 16 41 6 69 11 115 21 14 3 41 7 60 9 19 3
89 15 155 26 171 30 196 34 232 35 30 0 151 -118 1577 -1542 850 -849 1547
-1543 1550 -1543 2 0 615 611 1361 1357 l1357 1356 -4582 4582 c-2519 2519
-4579 4583 -4576 4586 3 2 7 16 10 29 3 14 21 94 40 178 19 84 37 170 40 190
3 20 7 46 10 57 2 11 7 40 11 65 18 120 29 223 41 390 13 187 7 571 -11 720
-2 19 -7 58 -10 85 -7 66 -16 135 -21 160 -2 11 -7 40 -10 64 -5 36 -43 228
-59 293 -35 150 -108 392 -157 523 -80 212 -130 325 -224 510 -312 612 -725
1126 -1284 1599 -63 53 -275 209 -370 273 -548 365 -1196 621 -1840 728 -52 9
-105 18 -117 20 -69 12 -295 33 -428 41 -92 6 -414 11 -418 7z m-1202 -2027
c107 -24 192 -54 280 -96 417 -201 683 -621 689 -1085 1 -131 -36 -345 -77
-437 -60 -135 -83 -179 -136 -256 -112 -164 -271 -304 -447 -394 -91 -46 -211
-92 -273 -103 -19 -3 -37 -8 -41 -10 -38 -23 -430 -25 -468 -1 -4 2 -23 7 -42
10 -118 18 -321 111 -446 204 -391 289 -576 777 -470 1237 56 244 157 425 331
600 173 174 378 282 631 334 112 24 361 22 469 -3z"/>
<path d="M18903 4738 l-1092 -1092 152 -84 c83 -46 184 -100 222 -121 39 -21
97 -53 130 -71 33 -18 218 -119 410 -225 193 -106 384 -210 425 -232 41 -23
163 -89 270 -148 107 -59 224 -123 260 -142 36 -20 88 -48 117 -64 28 -16 71
-39 95 -52 44 -24 117 -64 223 -122 33 -18 83 -45 110 -61 28 -15 73 -40 100
-55 28 -14 82 -44 120 -64 39 -21 99 -55 135 -75 36 -21 103 -58 150 -82 47
-25 146 -79 220 -120 74 -41 171 -94 215 -118 44 -24 94 -51 110 -60 42 -24
122 -67 255 -140 63 -35 134 -73 158 -86 23 -13 61 -35 85 -48 23 -13 78 -43
122 -66 44 -24 98 -53 120 -65 100 -55 187 -102 270 -148 147 -81 186 -102
260 -142 39 -21 76 -42 83 -48 6 -5 12 -6 12 -3 0 7 -260 486 -280 516 -6 8
-13 22 -17 30 -3 8 -29 56 -56 105 -27 50 -62 113 -77 140 -55 100 -89 162
-137 250 -27 50 -66 119 -85 155 -19 36 -102 187 -183 335 -81 149 -161 295
-178 325 -16 30 -40 73 -52 95 -12 22 -37 67 -55 100 -32 59 -161 295 -190
347 -8 15 -34 62 -56 105 -23 43 -56 102 -73 131 -17 29 -31 55 -31 57 0 2
-25 47 -55 100 -30 54 -55 99 -55 101 0 2 -43 80 -95 175 -52 94 -95 173 -95
175 0 3 -11 21 -23 42 -13 20 -50 87 -82 147 -32 61 -61 115 -65 120 -4 6 -24
42 -45 80 -55 102 -94 173 -125 230 -63 114 -84 153 -112 205 -17 30 -43 78
-58 105 -15 28 -44 82 -65 120 -21 39 -59 108 -85 155 -26 47 -64 117 -85 155
-21 39 -55 101 -77 138 -21 38 -38 73 -38 78 0 5 -3 9 -8 9 -4 0 -499 -491
-1099 -1092z"/>
</g>
</svg>
