<svg id="Capa_1" data-name="Capa 1" xmlns="http://www.w3.org/2000/svg" viewBox="0 0 586 586"><title>secure-notes-logo</title><path d="M307,394.19a10.7,10.7,0,0,0,12.5,10.51l48.52-8.27a17.81,17.81,0,0,0,14.56-14.5l9.08-52.2a17.82,17.82,0,0,0-4.95-15.66l-132-132C265.95,141.57,254,99.29,223,68.3c-46.67-46.65-122.86-46.11-169.52.55a119.29,119.29,0,0,0,.14,168.81c31.2,31.2,74.75,42.15,115.24,30.93l17.22,17.22a10.67,10.67,0,0,0,15.15,0,9,9,0,0,1,15.35,6.37l0,11.23a10.7,10.7,0,0,0,10.71,10.76h22.28a10.7,10.7,0,0,1,10.7,10.69l0,25.05A10.71,10.71,0,0,0,271,360.55l25.2,0A10.7,10.7,0,0,1,307,371.18ZM77.29,135.48a30.4,30.4,0,1,1,43,0A30.39,30.39,0,0,1,77.29,135.48Z"/><path d="M253.22,180.56,483.75,411.09,415.88,479,185.31,248.47ZM445.13,495,565.82,561l-66.06-120.7Z"/></svg>